<?xml version="1.0" standalone="no"?>
<!DOCTYPE svg PUBLIC "-//W3C//DTD SVG 20010904//EN"
 "http://www.w3.org/TR/2001/REC-SVG-20010904/DTD/svg10.dtd">
<svg version="1.0" xmlns="http://www.w3.org/2000/svg"
 width="494.000000pt" height="494.000000pt" viewBox="0 0 494.000000 494.000000"
 preserveAspectRatio="xMidYMid meet">
<metadata>
Created by potrace 1.11, written by Peter Selinger 2001-2013
</metadata>
<g transform="translate(0.000000,494.000000) scale(0.100000,-0.100000)"
fill="#000000" stroke="none">
<path d="M0 2470 l0 -2470 2470 0 2470 0 0 2470 0 2470 -2470 0 -2470 0 0
-2470z m2675 2181 c88 -44 192 -145 234 -228 52 -104 64 -176 56 -339 -7 -161
3 -205 52 -226 20 -9 160 -14 473 -18 431 -5 447 -6 510 -29 210 -74 309 -228
310 -481 0 -245 -107 -407 -320 -481 -59 -21 -89 -23 -330 -28 -260 -6 -267
-7 -315 -32 -28 -14 -50 -30 -50 -35 0 -11 408 -392 630 -588 88 -77 185 -166
215 -197 204 -211 211 -468 20 -672 -144 -154 -318 -222 -469 -183 -117 30
-192 78 -341 221 -212 204 -262 236 -320 205 -37 -20 -42 -77 -39 -479 2 -375
1 -388 -20 -446 -76 -209 -304 -385 -498 -385 -173 1 -393 145 -472 310 l-26
55 -5 435 c-3 239 -9 443 -14 453 -10 22 -57 47 -88 47 -31 0 -46 -11 -243
-180 -221 -189 -233 -198 -306 -221 -225 -70 -501 64 -610 296 -89 191 -46
401 115 558 106 104 712 647 765 686 25 19 49 39 53 45 14 21 8 63 -12 81 -19
17 -44 19 -303 20 -263 1 -286 2 -348 23 -129 43 -232 130 -290 244 -151 297
6 656 321 739 29 7 197 14 478 18 l434 6 24 28 c24 28 24 30 24 250 0 122 4
237 9 255 28 96 117 189 235 247 110 55 156 65 282 62 104 -3 117 -6 179 -36z"/>
</g>
</svg>
